<svg xmlns="http://www.w3.org/2000/svg" viewBox="0 0 1200 800">
  <rect width="1200" height="800" fill="#FBF2E9"/>
  <circle cx="940" cy="160" r="220" fill="#F6E3D3"/>
  <rect x="150" y="560" width="900" height="18" rx="4" fill="#EDE1D8"/>
  <!-- blender base -->
  <g>
    <rect x="440" y="470" width="320" height="110" rx="16" fill="#241B2F"/>
    <circle cx="600" cy="525" r="26" fill="#F2A93B"/>
    <rect x="480" y="500" width="60" height="10" rx="5" fill="#4a3a52"/>
    <rect x="480" y="518" width="60" height="10" rx="5" fill="#4a3a52"/>
  </g>
  <!-- jar -->
  <g>
    <path d="M500 220 L700 220 L672 470 Q600 500 528 470 Z" fill="#ffffff" stroke="#241B2F" stroke-width="6"/>
    <path d="M520 380 L680 380 L672 470 Q600 500 528 470 Z" fill="#A8447A" opacity="0.85"/>
    <rect x="492" y="196" width="216" height="34" rx="8" fill="#7A2E52"/>
    <rect x="560" y="470" width="80" height="30" rx="6" fill="#241B2F"/>
  </g>
  <!-- wrench -->
  <g transform="translate(820,380) rotate(18)">
    <rect x="0" y="0" width="140" height="26" rx="6" fill="#D48A1E"/>
    <circle cx="150" cy="13" r="30" fill="none" stroke="#D48A1E" stroke-width="22"/>
  </g>
  <!-- screwdriver -->
  <g transform="translate(340,420) rotate(-24)">
    <rect x="0" y="0" width="120" height="16" rx="6" fill="#6b5f66"/>
    <rect x="118" y="-6" width="34" height="28" rx="6" fill="#7A2E52"/>
  </g>
  <circle cx="330" cy="280" r="26" fill="none" stroke="#EDE1D8" stroke-width="10"/>
  <circle cx="880" cy="300" r="20" fill="none" stroke="#EDE1D8" stroke-width="8"/>
</svg>
